<svg width="18" height="18" viewBox="0 0 18 18" fill="none" xmlns="http://www.w3.org/2000/svg">
<path d="M14.9309 6.32812C15.1523 6.93988 15.7324 7.38281 16.418 7.38281C17.2934 7.38281 18 6.67621 18 5.80078C18 4.92536 17.2934 4.21875 16.418 4.21875C15.7324 4.21875 15.1523 4.66168 14.9309 5.27344H13.6934C13.6512 4.90433 13.5774 4.55625 13.4508 4.21875H14.5301L15.743 3.00582C15.9434 3.10078 16.1754 3.16406 16.418 3.16406C17.2934 3.16406 18 2.45746 18 1.58203C18 0.706605 17.2934 0 16.418 0C15.5425 0 14.8359 0.706605 14.8359 1.58203C14.8359 1.82457 14.8992 2.05664 14.9942 2.25703L14.0871 3.16406H12.9445C12.0902 1.89844 10.6453 1.05469 9 1.05469C7.35469 1.05469 5.90977 1.89844 5.05547 3.16406H3.91289L3.00582 2.25703C3.10078 2.05664 3.16406 1.82457 3.16406 1.58203C3.16406 0.706605 2.45746 0 1.58203 0C0.706605 0 0 0.706605 0 1.58203C0 2.45746 0.706605 3.16406 1.58203 3.16406C1.82457 3.16406 2.05664 3.10078 2.25703 3.00582L3.46989 4.21875H4.54925C4.42262 4.55625 4.34886 4.90433 4.30664 5.27344H3.06914C2.84766 4.66168 2.26761 4.21875 1.58203 4.21875C0.706605 4.21875 0 4.92536 0 5.80078C0 6.67621 0.706605 7.38281 1.58203 7.38281C2.26761 7.38281 2.84766 6.93988 3.06911 6.32812H4.29606C4.33828 6.69723 4.41211 7.04531 4.53867 7.38281H3.46989L2.25703 8.59574C2.05664 8.50078 1.82457 8.4375 1.58203 8.4375C0.706605 8.4375 0 9.14411 0 10.0195C0 10.895 0.706605 11.6016 1.58203 11.6016C2.45746 11.6016 3.16406 10.895 3.16406 10.0195C3.16406 9.77699 3.10078 9.54492 3.00582 9.34453L3.91289 8.4375H5.06602C5.62497 9.26019 6.43711 9.9141 7.41793 10.2621V18H10.582V16.875H11.6367V14.7656H9.52731V13.7109H11.6367V11.6016H10.582V10.2621C11.5629 9.91406 12.375 9.26016 12.9339 8.4375H14.087L14.9941 9.34453C14.8992 9.54492 14.8359 9.77699 14.8359 10.0195C14.8359 10.895 15.5425 11.6016 16.418 11.6016C17.2934 11.6016 18 10.895 18 10.0195C18 9.14411 17.2934 8.4375 16.418 8.4375C16.1754 8.4375 15.9434 8.50078 15.743 8.59574L14.5301 7.38281H13.4613C13.5879 7.04531 13.6617 6.69723 13.7039 6.32812H14.9309ZM9 5.80078C8.41992 5.80078 7.94531 5.32617 7.94531 4.74609C7.94531 4.16602 8.41992 3.69141 9 3.69141C9.58008 3.69141 10.0547 4.16602 10.0547 4.74609C10.0547 5.32617 9.58008 5.80078 9 5.80078Z" fill="#FF8A00"/>
</svg>
