<svg width="108" height="48" viewBox="0 0 108 48" fill="none" xmlns="http://www.w3.org/2000/svg">
<rect width="108" height="48" rx="5" fill="#232323"/>
<path d="M43.7031 30.4199L45.043 35H48.4473L42.0762 15.0938H39.1641L32.6836 35H36.1016L37.4551 30.4199H43.7031ZM38.2891 27.6035L40.6133 19.7285L42.8965 27.6035H38.2891ZM54.3809 27.4121H57.7578C58.7604 27.4121 59.681 27.2663 60.5195 26.9746C61.3672 26.6829 62.0964 26.2728 62.707 25.7441C63.3177 25.2064 63.7917 24.5638 64.1289 23.8164C64.4661 23.069 64.6348 22.2396 64.6348 21.3281C64.6348 20.3711 64.4661 19.5098 64.1289 18.7441C63.7917 17.9785 63.3177 17.3268 62.707 16.7891C62.0964 16.2513 61.3672 15.8366 60.5195 15.5449C59.681 15.2533 58.7604 15.1029 57.7578 15.0938H51.0996V35H54.3809V27.4121ZM54.3809 24.7324V17.7734H57.7578C58.3138 17.7734 58.8105 17.8646 59.248 18.0469C59.6947 18.2201 60.0729 18.4661 60.3828 18.7852C60.6927 19.1042 60.9251 19.4824 61.0801 19.9199C61.2441 20.3483 61.3262 20.8268 61.3262 21.3555C61.3262 21.8385 61.2441 22.2852 61.0801 22.6953C60.9251 23.1055 60.6927 23.4609 60.3828 23.7617C60.0729 24.0625 59.6947 24.2995 59.248 24.4727C58.8105 24.6367 58.3138 24.7233 57.7578 24.7324H54.3809ZM68.1621 15.0938V17.8145H72.3184V32.293H68.1621V35H79.8926V32.293H75.6406V17.8145H79.8926V15.0938H68.1621Z" fill="#FAFAFA"/>
<path d="M94.2344 30.9941C94.2344 31.2311 94.1797 31.4499 94.0703 31.6504C93.9701 31.8418 93.8151 32.0195 93.6055 32.1836C93.3503 32.3841 93.0085 32.5436 92.5801 32.6621C92.1608 32.7806 91.6686 32.8398 91.1035 32.8398C90.6842 32.8398 90.2695 32.7988 89.8594 32.7168C89.4492 32.6257 89.0846 32.4798 88.7656 32.2793C88.4375 32.0879 88.1641 31.8372 87.9453 31.5273C87.7357 31.2083 87.6172 30.821 87.5898 30.3652H84.418C84.418 30.9759 84.5638 31.5775 84.8555 32.1699C85.1471 32.7624 85.5755 33.2865 86.1406 33.7422C86.6966 34.207 87.3848 34.5807 88.2051 34.8633C89.0345 35.1458 89.9824 35.2871 91.0488 35.2871C92.0059 35.2871 92.8763 35.1777 93.6602 34.959C94.444 34.7402 95.1185 34.4349 95.6836 34.043C96.2396 33.651 96.668 33.1816 96.9688 32.6348C97.2786 32.0879 97.4336 31.4863 97.4336 30.8301C97.4336 30.1556 97.2878 29.5723 96.9961 29.0801C96.7044 28.5879 96.2943 28.1595 95.7656 27.7949C95.237 27.4486 94.599 27.1569 93.8516 26.9199C93.1042 26.6829 92.2793 26.4824 91.377 26.3184C90.7298 26.209 90.1921 26.0859 89.7637 25.9492C89.3444 25.8125 89.0163 25.6621 88.7793 25.498C88.5241 25.3431 88.3464 25.1654 88.2461 24.9648C88.1458 24.7552 88.0957 24.5228 88.0957 24.2676C88.0957 24.0215 88.1549 23.7891 88.2734 23.5703C88.3919 23.3424 88.5697 23.1465 88.8066 22.9824C89.0436 22.8001 89.3444 22.6589 89.709 22.5586C90.0827 22.4492 90.5156 22.3945 91.0078 22.3945C91.5456 22.3945 92.015 22.4674 92.416 22.6133C92.8171 22.75 93.1452 22.9368 93.4004 23.1738C93.6191 23.3743 93.7832 23.6022 93.8926 23.8574C94.0111 24.1035 94.0703 24.3633 94.0703 24.6367H97.3379C97.3379 23.9714 97.1921 23.3516 96.9004 22.7773C96.6087 22.2031 96.194 21.7064 95.6562 21.2871C95.1094 20.8678 94.444 20.5397 93.6602 20.3027C92.8763 20.0566 91.9922 19.9336 91.0078 19.9336C90.0872 19.9336 89.2487 20.0521 88.4922 20.2891C87.7448 20.526 87.1068 20.8496 86.5781 21.2598C86.0404 21.6699 85.6257 22.1484 85.334 22.6953C85.0514 23.2331 84.9102 23.8027 84.9102 24.4043C84.9102 25.0332 85.0514 25.5846 85.334 26.0586C85.6165 26.5234 86.0085 26.9336 86.5098 27.2891C87.0202 27.6536 87.6263 27.9635 88.3281 28.2188C89.0391 28.474 89.8229 28.6882 90.6797 28.8613C91.3633 28.9889 91.9329 29.1257 92.3887 29.2715C92.8444 29.4173 93.2135 29.5723 93.4961 29.7363C93.7604 29.9186 93.9473 30.11 94.0566 30.3105C94.1751 30.5111 94.2344 30.7389 94.2344 30.9941Z" fill="#FF8A00"/>
<path d="M22.9309 22.3281C23.1523 22.9399 23.7324 23.3828 24.418 23.3828C25.2934 23.3828 26 22.6762 26 21.8008C26 20.9254 25.2934 20.2188 24.418 20.2188C23.7324 20.2188 23.1523 20.6617 22.9309 21.2734H21.6934C21.6512 20.9043 21.5774 20.5563 21.4508 20.2188H22.5301L23.743 19.0058C23.9434 19.1008 24.1754 19.1641 24.418 19.1641C25.2934 19.1641 26 18.4575 26 17.582C26 16.7066 25.2934 16 24.418 16C23.5425 16 22.8359 16.7066 22.8359 17.582C22.8359 17.8246 22.8992 18.0566 22.9942 18.257L22.0871 19.1641H20.9445C20.0902 17.8984 18.6453 17.0547 17 17.0547C15.3547 17.0547 13.9098 17.8984 13.0555 19.1641H11.9129L11.0058 18.257C11.1008 18.0566 11.1641 17.8246 11.1641 17.582C11.1641 16.7066 10.4575 16 9.58203 16C8.70661 16 8 16.7066 8 17.582C8 18.4575 8.70661 19.1641 9.58203 19.1641C9.82457 19.1641 10.0566 19.1008 10.257 19.0058L11.4699 20.2188H12.5493C12.4226 20.5563 12.3489 20.9043 12.3066 21.2734H11.0691C10.8477 20.6617 10.2676 20.2188 9.58203 20.2188C8.70661 20.2188 8 20.9254 8 21.8008C8 22.6762 8.70661 23.3828 9.58203 23.3828C10.2676 23.3828 10.8477 22.9399 11.0691 22.3281H12.2961C12.3383 22.6972 12.4121 23.0453 12.5387 23.3828H11.4699L10.257 24.5957C10.0566 24.5008 9.82457 24.4375 9.58203 24.4375C8.70661 24.4375 8 25.1441 8 26.0195C8 26.895 8.70661 27.6016 9.58203 27.6016C10.4575 27.6016 11.1641 26.895 11.1641 26.0195C11.1641 25.777 11.1008 25.5449 11.0058 25.3445L11.9129 24.4375H13.066C13.625 25.2602 14.4371 25.9141 15.4179 26.2621V34H18.582V32.875H19.6367V30.7656H17.5273V29.7109H19.6367V27.6016H18.582V26.2621C19.5629 25.9141 20.375 25.2602 20.9339 24.4375H22.087L22.9941 25.3445C22.8992 25.5449 22.8359 25.777 22.8359 26.0195C22.8359 26.895 23.5425 27.6016 24.418 27.6016C25.2934 27.6016 26 26.895 26 26.0195C26 25.1441 25.2934 24.4375 24.418 24.4375C24.1754 24.4375 23.9434 24.5008 23.743 24.5957L22.5301 23.3828H21.4613C21.5879 23.0453 21.6617 22.6972 21.7039 22.3281H22.9309ZM17 21.8008C16.4199 21.8008 15.9453 21.3262 15.9453 20.7461C15.9453 20.166 16.4199 19.6914 17 19.6914C17.5801 19.6914 18.0547 20.166 18.0547 20.7461C18.0547 21.3262 17.5801 21.8008 17 21.8008Z" fill="#FF8A00"/>
</svg>
